<?xml version="1.0" encoding="UTF-8"?>
<svg id="Ebene_1" xmlns="http://www.w3.org/2000/svg" version="1.1" viewBox="0 0 825.5 347.3">
  <!-- Generator: Adobe Illustrator 29.2.1, SVG Export Plug-In . SVG Version: 2.1.0 Build 116)  -->
  <defs>
    <style>
      .st0 {
        fill: #fff;
      }

      .st1 {
        fill: #e6320a;
      }
    </style>
  </defs>
  <path class="st0" d="M160.3,50l63.3,167.9h-44.1l-11.3-32.6h-64.3l-11.3,32.6h-44.1L111.8,50h48.5ZM136,93.2l-19.9,57.1h39.8l-19.9-57.1h0ZM236.3,217.9V50h40.3v167.9h-40.3ZM372.6,167.5h-23.5c-7.9,0-14.4,3.3-14.4,12s6.4,12,14.4,12c21.4,0,23.5-13.1,23.5-24h0ZM422.4,217.9h-26.6c-9.5,0-17.3-7.7-17.3-17.3,0,0-6,19.7-42.7,19.7s-40.5-14.5-40.5-38.1,19.5-38.1,40.5-38.1h36.7c0-10.2-2.8-18.5-18.5-18.5h-46.8v-33.6h52.1c37.7,0,52,23.3,52,52.1v38.1c0,2.5,2,4.6,4.6,4.6h6.5v31.2h0Z"/>
  <path class="st0" d="M519.8,217.9v-73.9c0-10.2-2.8-18.5-18.5-18.5h-22.3v92.3h-38.9v-125.9h66.4c37.7,0,52.1,23.3,52.1,52.1v73.9h-38.9.1Z"/>
  <path class="st0" d="M356.8,297.3h-8.7v-6.6h5.9c2.9,0,3.6-.7,4.7-3.6l1.1-2.6-14-35.6h8l10.2,26.9,10-26.9h8l-16.1,40.2c-2.2,5.8-3.7,8.3-9,8.3h-.1ZM759.2,248.8v-10.2h8.1v10.2h9.6v7.2h-9.6v16.2c0,2.6,1.1,3.7,3.8,3.7h5.9v7.3h-7.8c-6.8,0-10-3-10-9.8v-17.4h-6.4v-7.2h6.4ZM580.4,283.3v-20.4c0-5.1-1.8-7.4-5.9-7.4s-7.8,2.9-7.8,8v19.8h-8.1v-20.4c0-5.1-1.8-7.4-5.9-7.4s-7.8,2.9-7.8,8v19.8h-8.1v-34.5h8v5.2c1.9-3.8,5.8-6.2,10.7-6.2s8.6,2.4,10.2,6.7c1.8-4.1,6.1-6.7,11.6-6.7s11.4,4.7,11.4,13v22.4h-8.3ZM520.5,283.3v-20.4c0-5.1-1.8-7.4-5.9-7.4s-7.8,2.9-7.8,8v19.8h-8.1v-20.4c0-5.1-1.8-7.4-5.9-7.4s-7.8,2.9-7.8,8v19.8h-8.1v-34.5h8v5.2c1.9-3.8,5.8-6.2,10.7-6.2s8.6,2.4,10.2,6.7c1.8-4.1,6.1-6.7,11.6-6.7s11.4,4.7,11.4,13v22.4h-8.3ZM731.9,248.8v-5.1c0-6.4,3.4-10,10-10h7.3v7.3h-5.4c-2.7,0-3.8,1.2-3.8,3.7v4.1h9.1v7.2h-9.1v27.2h-8.1v-27.2h-6.5v-7.2h6.5ZM406.8,266.1c0,6.4,3.8,10.6,9.5,10.6s6.4-1.6,8.3-4.7l6.1,4.4c-2.8,4.9-8.1,7.8-14.6,7.8-10.6,0-17.6-7.5-17.6-18.1s7-18.2,17.6-18.2,11.8,2.9,14.6,7.8l-6.1,4.4c-1.9-3.1-4.9-4.6-8.3-4.6-5.7,0-9.5,4.1-9.5,10.6h0ZM656.7,272.5c2.7,3,6.8,4.7,11.1,4.7s6-1.5,6-3.7-1.3-2.9-4.7-3.7l-5.5-1.4c-7-1.7-10-4.9-10-9.8s5.2-10.8,13.9-10.8,11,2.1,13.9,5.5l-4.3,5.4c-2.9-2.6-6.2-3.8-9.8-3.8s-5.7,1.4-5.7,3.5,1.1,2.6,4.7,3.5l5.8,1.4c7.1,1.7,9.7,5,9.7,9.8,0,6.8-5.2,11.2-14.2,11.2s-12.4-2.6-15.4-6.6l4.4-5.2h0ZM324.9,278.3c6.2,0,10.3-4.9,10.3-11.9s-4.1-11.8-10.3-11.8-10.2,4.9-10.2,11.7,4,11.9,10.2,11.9h0ZM326.3,248.3c9.6,0,16.7,6.7,16.7,18.2s-7.1,18.2-16.9,18.2-9.2-2.2-11.4-5.3l-.8,4.9h-6.5v-48.6h7.5v18.3c2.4-3.1,6-5.6,11.5-5.6h-.1ZM462.2,266.1c0-6.3-3.7-10.7-9.5-10.7s-9.5,4.4-9.5,10.7,3.7,10.6,9.5,10.6,9.5-4.4,9.5-10.6h0ZM470.5,266.1c0,10-6.9,18.1-17.8,18.1s-17.8-8.2-17.8-18.1,7-18.2,17.8-18.2,17.8,8.2,17.8,18.2h0ZM621.9,266.1c0-6.3-3.7-10.7-9.5-10.7s-9.5,4.4-9.5,10.7,3.7,10.6,9.5,10.6,9.5-4.4,9.5-10.6h0ZM629.7,283.3h-8v-5.5c-2,4.1-6.4,6.4-11.6,6.4-9,0-15.6-7.4-15.6-18.1s6.6-18.2,15.6-18.2,9.6,2.4,11.6,6.5v-5.5h8v34.5h0ZM714.3,266.1c0-6.3-3.6-10.7-9.5-10.7s-9.5,4.4-9.5,10.7,3.7,10.6,9.5,10.6,9.5-4.4,9.5-10.6h0ZM722.6,266.1c0,10-6.9,18.1-17.8,18.1s-17.8-8.2-17.8-18.1,7-18.2,17.8-18.2,17.8,8.2,17.8,18.2h0Z"/>
  <polygon class="st1" points="48.5 248.8 48.5 283.3 276.6 283.3 276.6 248.8 48.5 248.8 48.5 248.8"/>
</svg>